<mxfile host="app.diagrams.net" modified="2023-08-25T10:48:46.269Z" agent="Mozilla/5.0 (Windows NT 10.0; Win64; x64) AppleWebKit/537.36 (KHTML, like Gecko) Chrome/116.0.0.0 Safari/537.36" version="21.6.9" etag="0BSEi7TDlC-P5xKOX2tI" type="github">
  <diagram name="Page-1" id="n5cUWILyCTMb5AP5SN0Y">
    <mxGraphModel>
      <root>
        <mxCell id="0" />
        <mxCell id="1" parent="0" />
      </root>
    </mxGraphModel>
  </diagram>
</mxfile>
